<svg width="24" height="24" viewBox="0 0 24 24" fill="none" xmlns="http://www.w3.org/2000/svg">
<g clip-path="url(#clip0_1_434)">
<path d="M18.6308 7.14C20.5994 7.14 22.2008 5.5386 22.2008 3.57C22.2008 1.6014 20.5994 0 18.6308 0C16.6622 0 15.0608 1.6014 15.0608 3.57C15.0608 5.5386 16.6622 7.14 18.6308 7.14ZM20.1608 15.3V8.9658C19.6508 9.1086 19.1408 9.18 18.6308 9.18C18.4574 9.18 18.2942 9.18 18.1208 9.18V15.3C18.1208 16.9932 16.754 18.36 15.0608 18.36H6.90078C5.20758 18.36 3.84078 16.9932 3.84078 15.3V7.14C3.84078 5.4468 5.20758 4.08 6.90078 4.08H13.0208C13.0208 3.9168 13.0208 3.7434 13.0208 3.57C13.0208 3.06 13.0922 2.55 13.235 2.04H6.90078C4.08558 2.04 1.80078 4.3248 1.80078 7.14V15.3C1.80078 18.1152 4.08558 20.4 6.90078 20.4H15.0608C17.876 20.4 20.1608 18.1152 20.1608 15.3Z" fill="black"/>
</g>
<defs>
<clipPath id="clip0_1_434">
<rect width="24" height="24" fill="white"/>
</clipPath>
</defs>
</svg>
